<svg xmlns="http://www.w3.org/2000/svg" viewBox="0 0 100 100">
  <rect width="100" height="100" rx="20" fill="#4C1D95"/>
  <g transform="translate(15.00,62.00) scale(0.06512,-0.06512)" fill="#FFFFFF">
    <path transform="translate(0,0)" d="M46 -87Q16 -71 8.0 -54.0Q0 -37 0 -25Q0 2 19.5 47.5Q39 93 72.0 152.0Q105 211 147 275Q116 277 88.0 278.0Q60 279 16 279H0Q14 315 44.5 329.5Q75 344 116 344Q133 344 151.5 342.0Q170 340 190 338Q240 410 288.5 474.0Q337 538 380.5 589.5Q424 641 458 674Q506 722 528 722Q542 722 559.5 711.0Q577 700 596 683Q586 675 570.5 642.0Q555 609 537.5 558.5Q520 508 502.5 448.0Q485 388 471.0 326.0Q457 264 448.5 207.5Q440 151 440 108Q440 68 448.0 48.5Q456 29 475 29Q498 29 532.0 64.0Q566 99 608 178L626 159Q595 77 545.5 24.0Q496 -29 440 -29Q392 -29 372.0 12.5Q352 54 352 126Q352 149 355.0 178.0Q358 207 365 250Q321 257 287.0 261.0Q253 265 222 269Q174 184 129.0 93.0Q84 2 46 -87ZM375 299Q388 358 405.5 418.5Q423 479 442.5 534.5Q462 590 481 634Q451 610 414.0 565.0Q377 520 336.5 459.0Q296 398 254 326Q284 320 314.0 313.0Q344 306 375 299Z"/>
    <path transform="translate(631,0)" d="M56 -47Q23 -47 -1.5 -25.0Q-26 -3 -26 41Q-26 76 -10.0 117.0Q6 158 34.0 198.0Q62 238 98.0 270.5Q134 303 175.0 323.0Q216 343 257 343Q300 343 330.0 321.0Q360 299 360 263Q360 236 341.0 224.0Q322 212 296 217Q298 226 299.5 235.0Q301 244 301 254Q301 274 293.0 290.0Q285 306 259 306Q231 306 202.0 287.0Q173 268 146.5 237.5Q120 207 99.0 170.5Q78 134 66.0 99.0Q54 64 54 36Q54 4 77 4Q100 4 128.0 26.5Q156 49 184.5 83.0Q213 117 239.0 152.5Q265 188 284 213Q287 218 292 218Q296 217 307.5 213.5Q319 210 329.0 203.0Q339 196 339 185Q339 175 330.5 159.5Q322 144 310.5 125.5Q299 107 290.5 88.5Q282 70 282 53Q282 40 289.0 28.5Q296 17 312 17Q336 17 379.5 52.5Q423 88 468 173L487 154Q463 100 429.5 58.5Q396 17 359.0 -6.5Q322 -30 284 -30Q243 -30 223.0 -4.0Q203 22 201 52Q201 54 201.0 55.0Q201 56 201 57Q161 9 127.5 -19.0Q94 -47 56 -47Z"/>
  </g>
</svg>